<?xml version="1.0" encoding="UTF-8" standalone="no"?>
<!-- Generator: Adobe Illustrator 23.0.3, SVG Export Plug-In . SVG Version: 6.00 Build 0)  -->

<svg
   xmlns:dc="http://purl.org/dc/elements/1.1/"
   xmlns:cc="http://creativecommons.org/ns#"
   xmlns:rdf="http://www.w3.org/1999/02/22-rdf-syntax-ns#"
   xmlns:svg="http://www.w3.org/2000/svg"
   xmlns="http://www.w3.org/2000/svg"
   xmlns:sodipodi="http://sodipodi.sourceforge.net/DTD/sodipodi-0.dtd"
   xmlns:inkscape="http://www.inkscape.org/namespaces/inkscape"
   version="1.1"
   id="Icons"
   x="0px"
   y="0px"
   viewBox="0 0 32 32"
   style="enable-background:new 0 0 32 32;"
   xml:space="preserve"
   sodipodi:docname="SEO_advertising_internet_marketing_screen.svg"
   inkscape:version="0.92.4 (5da689c313, 2019-01-14)"><metadata
   id="metadata15"><rdf:RDF><cc:Work
       rdf:about=""><dc:format>image/svg+xml</dc:format><dc:type
         rdf:resource="http://purl.org/dc/dcmitype/StillImage" /></cc:Work></rdf:RDF></metadata><defs
   id="defs13" /><sodipodi:namedview
   pagecolor="#ffffff"
   bordercolor="#666666"
   borderopacity="1"
   objecttolerance="10"
   gridtolerance="10"
   guidetolerance="10"
   inkscape:pageopacity="0"
   inkscape:pageshadow="2"
   inkscape:window-width="1920"
   inkscape:window-height="1001"
   id="namedview11"
   showgrid="false"
   inkscape:zoom="7.375"
   inkscape:cx="16"
   inkscape:cy="16"
   inkscape:window-x="-9"
   inkscape:window-y="-9"
   inkscape:window-maximized="1"
   inkscape:current-layer="Icons" />
<path
   d="M23,28L23,28c-1.1,0-2.1-0.7-2.5-1.8c0-0.1,0-0.2-0.1-0.2h-8.9c0,0.1,0,0.2-0.1,0.2C11.1,27.3,10.1,28,9,28h0  c-0.6,0-1,0.4-1,1s0.4,1,1,1h14c0.6,0,1-0.4,1-1S23.6,28,23,28z"
   id="path2"
   style="fill:#ffcc00;fill-opacity:1" />
<g
   id="g8"
   style="fill:#ffcc00;fill-opacity:1">
	<path
   d="M16.9,10.9v4.5c0.9,0.3,1.7,0.6,2.5,1l0.6,0.3v-7l-0.6,0.3C18.6,10.3,17.8,10.6,16.9,10.9z"
   id="path4"
   style="fill:#ffcc00;fill-opacity:1" />
	<path
   d="M27,3H5C3.3,3,2,4.3,2,6v15c0,1.7,1.3,3,3,3h6.9h8.1H27c1.7,0,3-1.3,3-3V6C30,4.3,28.7,3,27,3z M22,18.3   c0,0.3-0.2,0.7-0.5,0.9c-0.2,0.1-0.3,0.1-0.5,0.1c-0.2,0-0.3,0-0.5-0.1l-2-1c-0.5-0.3-1-0.5-1.6-0.7V20c0,0.6-0.4,1-1,1h-2.5   c-0.4,0-0.7-0.2-0.9-0.6l-2.3-4.6C9.5,15.1,9,14.2,9,13.1c0-2,1.6-3.6,3.5-3.6c2.1,0,4.1-0.5,6-1.4l2.1-1c0.3-0.2,0.7-0.1,1,0   C21.8,7.3,22,7.7,22,8V18.3z"
   id="path6"
   style="fill:#ffcc00;fill-opacity:1" />
</g>
</svg>